<svg width="159" height="106" viewBox="0 0 159 106" fill="none" xmlns="http://www.w3.org/2000/svg">
<path d="M8.1 105.4C8.7 104.933 9.2 104.4 9.6 103.8C10.0667 103.267 10.3667 102.667 10.5 102C10.5667 101.733 10.6 101.267 10.6 100.6C10.6667 99.9333 10.7 99 10.7 97.8V97.6C11.0333 96.9333 11.6333 96.1333 12.5 95.2C13.4333 94.3333 14.2 93.9 14.8 93.9C15 93.9667 15.1 94.0667 15.1 94.2C15.1 98.4 14.7667 100.933 14.1 101.8L11.1 103.9C17.3667 101.967 23.5667 97.3333 29.7 90C23.5 89.7333 18.6 87.7667 15 84.1C11.4 80.3667 9.6 75.3667 9.6 69.1C9.6 65.7 10.2667 62.0667 11.6 58.2C3.86667 54.6 -1.47149e-06 48.3667 -1.47149e-06 39.5C-1.47149e-06 33.4333 1.96667 28.2 5.9 23.8C9.43333 19.6 14.1333 16.4 20 14.2C23.2 13 26.5667 12.1 30.1 11.5C33.7 10.8333 37.4333 10.5 41.3 10.5C43.7667 10.5 46.2 10.6333 48.6 10.9C51.0667 11.1667 53.4333 11.5667 55.7 12.1C55.4333 10.5 55.0667 8.93333 54.6 7.4C54.1333 5.8 53.6 4.2 53 2.6C52.8 2 52.7 1.5 52.7 1.1C52.7 0.366668 52.9667 0 53.5 0C54.1 0 54.7 0.466667 55.3 1.4C56.7667 3.8 57.6667 7.6 58 12.8C61.9333 13.9333 65.5 15.4 68.7 17.2C71.9 19 74.6333 21.1667 76.9 23.7C82.1 29.3 84.7 36.2333 84.7 44.5C84.7 56.6333 78.9 67.3 67.3 76.5C56.5 85.1 44.7667 89.6 32.1 90C24.4333 99.6667 16.4333 104.8 8.1 105.4ZM13.1 54.6C16.9 46.0667 22.6333 38.9667 30.3 33.3C38.3 27.5 46.8333 24.3667 55.9 23.9C55.9667 23.0333 56 22.1667 56 21.3C56.0667 20.4333 56.1 19.6 56.1 18.8C56.1 18.1333 56.1 17.5 56.1 16.9C56.1 16.2333 56.0667 15.6333 56 15.1C53.2 14.2333 50.4 13.6 47.6 13.2C44.8667 12.7333 42.1 12.5 39.3 12.5C32.3 12.5 26.0667 13.7667 20.6 16.3C9.73333 21.3667 4.3 28.7667 4.3 38.5C4.3 45.5667 7.23333 50.9333 13.1 54.6ZM34.1 87.4C45.0333 86.8 55.1667 82.1333 64.5 73.4C73.9667 64.3333 78.7 54.4333 78.7 43.7C78.7 31.4333 73.6 22.8667 63.4 18C62.5333 17.6 61.6667 17.2333 60.8 16.9C60 16.5 59.1333 16.1333 58.2 15.8V16.6C58.2 17.6667 58.1667 18.8333 58.1 20.1C58.0333 21.3 57.9333 22.5667 57.8 23.9H58.3C62.2333 23.9 65.2 24.2667 67.2 25C69.2 25.6667 70.2 26.4 70.2 27.2C70.2 27.6 69.7667 27.8 68.9 27.8C68.6333 27.8 68.1333 27.7333 67.4 27.6C66.6667 27.4 65.7333 27.1333 64.6 26.8C62.2667 26.0667 59.9333 25.6667 57.6 25.6C57.3333 28.4667 56.8667 31.4667 56.2 34.6C55.6 37.7333 54.8333 40.9667 53.9 44.3C51.6333 52.7667 48.8333 60.6 45.5 67.8C42.2333 74.9333 38.4333 81.4667 34.1 87.4ZM31.8 87.5C34.5333 83.7667 36.9333 80.0333 39 76.3C41.1333 72.5 42.8667 68.6667 44.2 64.8C44.1333 63.0667 43.5333 61.5333 42.4 60.2C41.2667 58.8 39.8333 58.2 38.1 58.4C38.6333 55.6667 40.3 54.3 43.1 54.3C45.3667 54.3 46.5 55.6333 46.5 58.3C46.5 58.5 46.5 58.7333 46.5 59C46.5 59.2 46.4667 59.4333 46.4 59.7C47.3333 56.8333 48.2333 54 49.1 51.2C50.0333 48.3333 50.9667 45.5333 51.9 42.8C52.9 39.4667 53.7 36.4 54.3 33.6C54.9667 30.7333 55.4333 28.0667 55.7 25.6C48.1 25.9333 40.5667 29.2333 33.1 35.5C29.4333 38.5667 26.3 41.8667 23.7 45.4C21.1 48.8667 18.9667 52.6333 17.3 56.7C19.7 57.5667 22.3333 58 25.2 58C25.5333 58 26.1333 57.8333 27 57.5C27.8667 57.1 28.4 56.9 28.6 56.9L28.7 57C28.7 57.2 28.4333 57.5667 27.9 58.1C26.3667 59.5667 24.2333 60.3 21.5 60.3C20.6333 60.3 19.7333 60.2667 18.8 60.2C17.9333 60.0667 17.0667 59.9333 16.2 59.8C15.2667 63 14.8 65.9667 14.8 68.7C14.8 73.1 15.7667 76.9333 17.7 80.2C19.8333 83.8 22.9667 86.0667 27.1 87C27.8333 87.1333 28.5667 87.2333 29.3 87.3C30.1 87.3667 30.9333 87.4333 31.8 87.5ZM88.5055 102.4C86.7721 102.4 85.3055 101.8 84.1055 100.6C82.9721 99.4667 82.4055 98.0333 82.4055 96.3C82.4055 94.5 83.0055 92.7 84.2055 90.9C87.5388 85.9667 92.1055 82.5667 97.9055 80.7C100.905 73.3667 102.405 67.6 102.405 63.4C102.405 59 100.672 56.8 97.2055 56.8C97.0055 56.8 96.8055 56.8 96.6055 56.8C96.4055 56.8 96.2055 56.8333 96.0055 56.9C96.9388 57.4333 97.4055 58.2667 97.4055 59.4C97.4055 61.7333 96.3388 63.4 94.2055 64.4C94.2721 64.1333 94.3055 63.8667 94.3055 63.6C94.3721 63.3333 94.4055 63.0667 94.4055 62.8C94.4055 60.2667 93.1055 59.0667 90.5055 59.2C92.1721 56.9333 94.4721 55.8 97.4055 55.8C101.672 55.8 103.805 58.2667 103.805 63.2C103.805 63.9333 103.739 64.7667 103.605 65.7C103.539 66.6333 103.372 67.6 103.105 68.6C103.639 67.0667 104.139 65.3 104.605 63.3C105.139 61.3 105.672 59 106.205 56.4L107.005 52.7H106.505C100.705 52.7 95.9388 53.9667 92.2055 56.5L92.0055 56.2L95.5055 53.4C98.2388 51.1333 102.305 49.8667 107.705 49.6C108.772 44.5333 109.805 40.1 110.805 36.3C111.872 32.5 112.839 29.3 113.705 26.7C112.305 26.4333 110.939 26.2333 109.605 26.1C108.339 25.9667 107.039 25.9 105.705 25.9C102.639 25.9 99.6055 26.3667 96.6055 27.3C92.8055 28.5 90.9055 30.3667 90.9055 32.9C90.9055 33.9 91.2721 34.9667 92.0055 36.1C92.3388 36.7 92.5721 37.1667 92.7055 37.5C92.9055 37.7667 93.0055 37.9333 93.0055 38C93.0055 39 91.3388 40.1333 88.0055 41.4C87.1388 40.5333 86.7055 39.4667 86.7055 38.2C86.7055 34.2 89.2721 30.3333 94.4055 26.6C99.6055 22.8 104.205 20.9 108.205 20.9C110.339 20.9 112.872 21.2333 115.805 21.9C116.872 19.5667 118.072 17.8333 119.405 16.7C119.672 16.4333 120.005 16.1667 120.405 15.9C120.805 15.6333 121.272 15.2667 121.805 14.8C121.139 15.9333 120.439 17.1333 119.705 18.4C118.972 19.6667 118.272 20.9667 117.605 22.3C123.139 23.5667 128.005 24.5667 132.205 25.3C136.405 25.9667 139.905 26.3 142.705 26.3C148.639 26.3 152.505 25.1 154.305 22.7C154.972 21.8333 155.472 21.4 155.805 21.4C156.005 21.4 156.105 21.5 156.105 21.7C156.105 21.9 156.005 22.2 155.805 22.6C152.472 28.2667 147.072 31.1 139.605 31.1C135.205 31.1 129.605 30.3 122.805 28.7C120.939 32.5 119.139 39.6 117.405 50C123.405 50.7333 128.005 51.3 131.205 51.7C134.405 52.0333 136.205 52.2 136.605 52.2C140.672 52.2 144.039 51.4667 146.705 50C146.972 50 147.105 50.1 147.105 50.3C147.105 51.5 145.605 52.8 142.605 54.2C140.472 55.2667 137.939 55.8 135.005 55.8C133.739 55.8 131.605 55.6333 128.605 55.3C125.605 54.9 121.672 54.3333 116.805 53.6C114.872 64.8667 112.205 72 108.805 75L103.805 79.5C104.339 79.4333 104.872 79.4 105.405 79.4C105.939 79.3333 106.472 79.3 107.005 79.3C109.205 79.3 111.372 79.5667 113.505 80.1C119.439 81.7667 124.772 83.0333 129.505 83.9C134.239 84.7 138.339 85.1 141.805 85.1C148.605 85.1 153.205 83.7 155.605 80.9C157.005 79.3 157.705 77.5 157.705 75.5C157.705 74.3667 157.405 73.4333 156.805 72.7C156.205 71.9 155.905 71.4667 155.905 71.4C155.905 70.9333 156.105 70.7 156.505 70.7C157.772 70.7 158.405 72.0667 158.405 74.8C158.405 77 157.705 79.1 156.305 81.1C152.505 86.3 145.939 88.9 136.605 88.9C134.605 88.9 131.539 88.5667 127.405 87.9C123.339 87.2333 118.239 86.2333 112.105 84.9C110.439 84.5667 108.805 84.3333 107.205 84.2C105.672 84 104.172 83.9 102.705 83.9C101.039 83.9 99.3388 84 97.6055 84.2C96.9388 85.6 96.3055 86.9 95.7055 88.1C95.1721 89.3 94.5721 90.4333 93.9055 91.5C93.1055 92.8333 92.5388 93.5 92.2055 93.5V93.4C92.2055 93 92.4721 92.3 93.0055 91.3C93.5388 90.1667 94.1055 89.0333 94.7055 87.9C95.3055 86.8333 95.8388 85.6667 96.3055 84.4C92.4388 85.2 89.3055 86.6667 86.9055 88.8C84.5721 90.9333 83.4055 93.1667 83.4055 95.5C83.4055 99.2333 85.8388 101.1 90.7055 101.1C91.0388 101.1 91.4055 101.067 91.8055 101C92.2055 101 92.4055 101.033 92.4055 101.1C92.4055 101.233 91.4388 101.5 89.5055 101.9C89.3055 101.967 89.1388 102.067 89.0055 102.2C88.8721 102.333 88.7055 102.4 88.5055 102.4ZM113.205 49.6V49.5C113.205 46.9667 113.605 44.3333 114.405 41.6C115.205 38.8 115.972 35.8667 116.705 32.8C117.239 32.0667 117.872 31.3333 118.605 30.6C119.339 29.8 120.105 29.0333 120.905 28.3L115.605 27.1C114.539 29.7667 113.472 32.9667 112.405 36.7C111.339 40.4333 110.239 44.7 109.105 49.5H110.005C110.472 49.5 110.972 49.5 111.505 49.5C112.039 49.5 112.605 49.5333 113.205 49.6ZM99.5055 80.2L102.805 79.6C104.939 76.4 106.805 72.6 108.405 68.2C110.005 63.7333 111.372 58.7 112.505 53.1C111.105 52.9 109.739 52.8 108.405 52.8L106.105 62.8C105.639 64.6667 104.872 66.8 103.805 69.2C102.805 71.5333 101.739 74.2333 100.605 77.3L99.5055 80.2Z" fill="#C99A2A"/>
</svg>
