<svg width="308" height="308" viewBox="0 0 308 308" fill="none" xmlns="http://www.w3.org/2000/svg">
<rect width="308" height="308" fill="#F5F5F5"/>
<g filter="url(#filter0_d_0_1)">
<rect x="4" width="300" height="300" rx="52" fill="#0B1220"/>
</g>
<path d="M67.0225 115.232C67.0225 112.075 68.0892 109.643 70.2225 107.936C72.3558 106.144 75.2998 105.248 79.0545 105.248L110.031 179.616L107.599 185.632L108.495 186.016L141.263 105.248C145.017 105.248 147.961 106.144 150.095 107.936C152.313 109.728 153.423 112.203 153.423 115.36V197.152C145.487 197.152 141.519 193.867 141.519 187.296V133.408L144.847 124.576L143.823 124.32L115.279 193.696C114.852 194.72 114.169 195.531 113.231 196.128C112.292 196.811 111.311 197.152 110.287 197.152C109.177 197.152 108.153 196.853 107.215 196.256C106.276 195.659 105.593 194.805 105.167 193.696L76.6225 124.192L75.5985 124.576L78.9265 133.28V187.296C78.9265 190.539 77.9025 193.013 75.8545 194.72C73.8918 196.341 70.9478 197.152 67.0225 197.152V115.232ZM207.11 197.152C199.942 197.152 193.542 195.829 187.91 193.184C182.278 190.453 177.883 186.699 174.726 181.92C171.654 177.056 170.118 171.552 170.118 165.408V136.736C170.118 130.592 171.654 125.131 174.726 120.352C177.883 115.573 182.235 111.861 187.782 109.216C193.328 106.571 199.686 105.248 206.854 105.248C214.022 105.248 220.379 106.4 225.926 108.704C231.472 110.923 235.782 114.037 238.854 118.048C242.011 122.059 243.59 126.667 243.59 131.872C243.59 134.432 242.736 136.437 241.03 137.888C239.323 139.339 237.062 140.064 234.246 140.064C233.648 140.064 232.752 139.979 231.558 139.808C231.728 138.784 231.814 137.163 231.814 134.944C231.814 131.275 230.747 127.989 228.614 125.088C226.566 122.187 223.622 119.925 219.782 118.304C216.027 116.683 211.718 115.872 206.854 115.872C202.075 115.872 197.808 116.768 194.054 118.56C190.299 120.267 187.355 122.741 185.222 125.984C183.174 129.141 182.15 132.725 182.15 136.736V165.408C182.15 169.504 183.174 173.173 185.222 176.416C187.355 179.573 190.299 182.048 194.054 183.84C197.894 185.632 202.246 186.528 207.11 186.528C212.059 186.528 216.454 185.717 220.294 184.096C224.134 182.475 227.12 180.256 229.254 177.44C231.387 174.539 232.454 171.211 232.454 167.456C232.454 166.091 232.368 164.469 232.198 162.592C233.392 162.421 234.246 162.336 234.757 162.336C237.574 162.336 239.835 163.147 241.542 164.768C243.334 166.389 244.23 168.565 244.23 171.296C244.23 176.331 242.651 180.811 239.494 184.736C236.336 188.661 231.942 191.733 226.31 193.952C220.763 196.085 214.363 197.152 207.11 197.152Z" fill="white"/>
<defs>
<filter id="filter0_d_0_1" x="0" y="0" width="308" height="308" filterUnits="userSpaceOnUse" color-interpolation-filters="sRGB">
<feFlood flood-opacity="0" result="BackgroundImageFix"/>
<feColorMatrix in="SourceAlpha" type="matrix" values="0 0 0 0 0 0 0 0 0 0 0 0 0 0 0 0 0 0 127 0" result="hardAlpha"/>
<feOffset dy="4"/>
<feGaussianBlur stdDeviation="2"/>
<feComposite in2="hardAlpha" operator="out"/>
<feColorMatrix type="matrix" values="0 0 0 0 1 0 0 0 0 1 0 0 0 0 1 0 0 0 1 0"/>
<feBlend mode="normal" in2="BackgroundImageFix" result="effect1_dropShadow_0_1"/>
<feBlend mode="normal" in="SourceGraphic" in2="effect1_dropShadow_0_1" result="shape"/>
</filter>
</defs>
</svg>
